<mxfile host="app.diagrams.net" modified="2022-05-05T08:41:31.793Z" agent="5.0 (Windows)" etag="J43-ZplgjZ5Z8FnoNO2v" version="18.0.0" type="github">
  <diagram id="rkCrw-vLA9dprcrIYfg1" name="Page-1">
    <mxGraphModel dx="1422" dy="752" grid="1" gridSize="10" guides="1" tooltips="1" connect="1" arrows="1" fold="1" page="1" pageScale="1" pageWidth="827" pageHeight="1169" math="0" shadow="0">
      <root>
        <mxCell id="0" />
        <mxCell id="1" parent="0" />
        <mxCell id="X5D4-5w48fvfyMMzJI7k-1" value="" style="rounded=0;whiteSpace=wrap;html=1;" parent="1" vertex="1">
          <mxGeometry x="120" y="200" width="520" height="320" as="geometry" />
        </mxCell>
        <mxCell id="U6QMf_cFzdKhK6Lhu7RA-2" value="" style="html=1;shadow=0;dashed=0;align=center;verticalAlign=middle;shape=mxgraph.arrows2.calloutDouble90Arrow;dy1=10;dx1=20;dx2=102;dy2=20;arrowHead=10;flipH=1;" parent="1" vertex="1">
          <mxGeometry x="160" y="120" width="190" height="120" as="geometry" />
        </mxCell>
        <mxCell id="X5D4-5w48fvfyMMzJI7k-2" value="Untitled Layer" parent="0" />
        <mxCell id="X5D4-5w48fvfyMMzJI7k-3" value="&lt;font style=&quot;font-size: 15px;&quot;&gt;Network Timestamping&lt;br&gt;&lt;/font&gt;" style="rounded=0;whiteSpace=wrap;html=1;" parent="X5D4-5w48fvfyMMzJI7k-2" vertex="1">
          <mxGeometry x="160" y="240" width="190" height="100" as="geometry" />
        </mxCell>
        <mxCell id="X5D4-5w48fvfyMMzJI7k-4" value="&lt;font style=&quot;font-size: 15px;&quot;&gt;CPU Interface&lt;/font&gt;" style="rounded=0;whiteSpace=wrap;html=1;" parent="X5D4-5w48fvfyMMzJI7k-2" vertex="1">
          <mxGeometry x="414" y="240" width="190" height="100" as="geometry" />
        </mxCell>
        <mxCell id="X5D4-5w48fvfyMMzJI7k-5" value="&lt;div style=&quot;font-size: 15px;&quot;&gt;&lt;font style=&quot;font-size: 15px;&quot;&gt;Hardware Clock&lt;/font&gt;&lt;/div&gt;&lt;div style=&quot;font-size: 15px;&quot;&gt;&lt;font style=&quot;font-size: 15px;&quot;&gt;Clock Servo&lt;/font&gt;&lt;br&gt;&lt;/div&gt;" style="rounded=0;whiteSpace=wrap;html=1;" parent="X5D4-5w48fvfyMMzJI7k-2" vertex="1">
          <mxGeometry x="160" y="380" width="190" height="100" as="geometry" />
        </mxCell>
        <mxCell id="X5D4-5w48fvfyMMzJI7k-6" value="&lt;font style=&quot;font-size: 15px;&quot;&gt;Signal Generation&lt;/font&gt;" style="rounded=0;whiteSpace=wrap;html=1;" parent="X5D4-5w48fvfyMMzJI7k-2" vertex="1">
          <mxGeometry x="414" y="380" width="190" height="100" as="geometry" />
        </mxCell>
        <mxCell id="X5D4-5w48fvfyMMzJI7k-7" value="&lt;font style=&quot;font-size: 15px;&quot;&gt;Ethernet PHY&lt;/font&gt;" style="rounded=0;whiteSpace=wrap;html=1;" parent="X5D4-5w48fvfyMMzJI7k-2" vertex="1">
          <mxGeometry x="40" y="40" width="120" height="120" as="geometry" />
        </mxCell>
        <mxCell id="X5D4-5w48fvfyMMzJI7k-8" value="&lt;font style=&quot;font-size: 15px;&quot;&gt;Ethernet MAC&lt;br&gt;&lt;/font&gt;" style="rounded=0;whiteSpace=wrap;html=1;" parent="X5D4-5w48fvfyMMzJI7k-2" vertex="1">
          <mxGeometry x="350" y="40" width="120" height="120" as="geometry" />
        </mxCell>
        <mxCell id="X5D4-5w48fvfyMMzJI7k-10" value="" style="html=1;shadow=0;dashed=0;align=center;verticalAlign=middle;shape=mxgraph.arrows2.calloutDouble90Arrow;dy1=10;dx1=20;dx2=102;dy2=20;arrowHead=10;" parent="X5D4-5w48fvfyMMzJI7k-2" vertex="1">
          <mxGeometry x="160" y="60" width="190" height="180" as="geometry" />
        </mxCell>
        <mxCell id="U6QMf_cFzdKhK6Lhu7RA-4" value="Untitled Layer" parent="0" />
        <mxCell id="U6QMf_cFzdKhK6Lhu7RA-5" value="TX" style="text;html=1;strokeColor=none;fillColor=none;align=center;verticalAlign=middle;whiteSpace=wrap;rounded=0;fontSize=15;" parent="U6QMf_cFzdKhK6Lhu7RA-4" vertex="1">
          <mxGeometry x="230" y="120" width="60" height="20" as="geometry" />
        </mxCell>
        <mxCell id="U6QMf_cFzdKhK6Lhu7RA-6" value="RX" style="text;html=1;strokeColor=none;fillColor=none;align=center;verticalAlign=middle;whiteSpace=wrap;rounded=0;fontSize=15;" parent="U6QMf_cFzdKhK6Lhu7RA-4" vertex="1">
          <mxGeometry x="230" y="60" width="60" height="20" as="geometry" />
        </mxCell>
        <mxCell id="U6QMf_cFzdKhK6Lhu7RA-7" value="" style="shape=flexArrow;endArrow=classic;startArrow=classic;html=1;rounded=0;fontSize=15;exitX=1;exitY=0.5;exitDx=0;exitDy=0;startWidth=18;startSize=8.67;width=20;fillColor=default;endWidth=18;endSize=7;" parent="U6QMf_cFzdKhK6Lhu7RA-4" source="X5D4-5w48fvfyMMzJI7k-4" edge="1">
          <mxGeometry width="100" height="100" relative="1" as="geometry">
            <mxPoint x="680" y="310" as="sourcePoint" />
            <mxPoint x="760" y="290" as="targetPoint" />
          </mxGeometry>
        </mxCell>
        <mxCell id="U6QMf_cFzdKhK6Lhu7RA-14" value="Clock_M" style="text;html=1;strokeColor=none;fillColor=none;align=center;verticalAlign=middle;whiteSpace=wrap;rounded=0;fontSize=15;" parent="U6QMf_cFzdKhK6Lhu7RA-4" vertex="1">
          <mxGeometry x="344" y="200" width="70" height="40" as="geometry" />
        </mxCell>
        <mxCell id="U6QMf_cFzdKhK6Lhu7RA-15" value="" style="shape=flexArrow;endArrow=classic;startArrow=classic;html=1;rounded=0;fontSize=15;exitX=1;exitY=0.5;exitDx=0;exitDy=0;startWidth=18;startSize=8.67;width=20;fillColor=default;endWidth=18;endSize=7;" parent="U6QMf_cFzdKhK6Lhu7RA-4" source="X5D4-5w48fvfyMMzJI7k-6" edge="1">
          <mxGeometry width="100" height="100" relative="1" as="geometry">
            <mxPoint x="610" y="430" as="sourcePoint" />
            <mxPoint x="760" y="430" as="targetPoint" />
          </mxGeometry>
        </mxCell>
        <mxCell id="U6QMf_cFzdKhK6Lhu7RA-16" value="&lt;div&gt;Event&lt;/div&gt;&lt;div&gt;PPS&lt;/div&gt;&lt;div&gt;IRIGB&lt;/div&gt;&lt;div&gt;...&lt;br&gt;&lt;/div&gt;" style="text;html=1;strokeColor=none;fillColor=none;align=center;verticalAlign=middle;whiteSpace=wrap;rounded=0;fontSize=15;" parent="U6QMf_cFzdKhK6Lhu7RA-4" vertex="1">
          <mxGeometry x="760" y="420" width="60" height="30" as="geometry" />
        </mxCell>
        <mxCell id="U6QMf_cFzdKhK6Lhu7RA-11" value="Untitled Layer" parent="0" />
        <mxCell id="U6QMf_cFzdKhK6Lhu7RA-12" value="AXI4 Lite" style="text;html=1;strokeColor=none;fillColor=none;align=center;verticalAlign=middle;whiteSpace=wrap;rounded=0;fontSize=15;" parent="U6QMf_cFzdKhK6Lhu7RA-11" vertex="1">
          <mxGeometry x="650" y="280" width="70" height="20" as="geometry" />
        </mxCell>
      </root>
    </mxGraphModel>
  </diagram>
</mxfile>
